<svg xmlns="http://www.w3.org/2000/svg" viewBox="384 384 1280 1280">
  <g transform="translate(0,2048) scale(0.1,-0.1)">
    <path fill="#111827" d="M4760 10240 l0 -3940 835 0 835 0 0 138 c0 75 2 706 3 1402 l2 1265 592 3 593 2 364 -727 c200 -401 517 -1032 703 -1403 l340 -675 931 -3 c513 -1 932 0 932 2 0 5 -114 227 -185 361 -23 44 -84 161 -135 260 -51 99 -145 279 -208 400 -63 121 -145 279 -182 350 -37 72 -123 236 -190 365 -68 129 -154 296 -193 370 -38 74 -94 182 -125 240 -30 58 -95 184 -145 280 -50 96 -115 222 -146 280 -99 184 -98 182 -81 188 58 20 251 127 349 192 517 347 846 843 974 1470 42 203 52 324 51 610 0 268 -7 360 -45 565 -86 470 -308 904 -621 1212 -127 126 -199 184 -353 286 -363 239 -835 392 -1350 436 -55 5 -875 9 -1822 10 l-1723 1 0 -3940z m3227 2570 c371 -49 649 -214 819 -487 79 -125 133 -279 165 -463 14 -81 14 -324 0 -410 -77 -480 -351 -797 -805 -930 -183 -54 -268 -59 -1036 -57 l-695 2 -3 1178 -2 1177 739 0 c448 0 770 -4 818 -10z"/>
    <path fill="#2563eb" d="M14170 14048 c-22 -73 -70 -223 -105 -333 -241 -757 -293 -920 -345 -1080 -78 -240 -364 -1139 -545 -1715 -80 -256 -177 -562 -215 -680 -38 -118 -87 -273 -109 -345 -21 -71 -75 -245 -119 -385 -44 -140 -122 -388 -173 -550 -51 -162 -111 -356 -135 -430 -23 -74 -45 -135 -50 -135 -9 0 -180 515 -471 1420 -25 77 -62 192 -83 255 -21 63 -93 284 -160 490 -67 206 -157 483 -200 615 -43 132 -121 374 -175 539 -53 164 -98 296 -100 294 -3 -2 0 -58 6 -124 21 -229 -1 -596 -52 -864 -103 -538 -350 -1042 -700 -1425 -35 -38 -70 -78 -77 -87 -14 -18 16 -111 368 -1138 67 -195 137 -400 155 -455 18 -55 95 -280 170 -500 75 -220 186 -546 247 -725 61 -179 116 -340 124 -357 l13 -33 940 0 939 0 12 33 c15 41 264 772 384 1127 51 151 110 322 130 380 21 58 89 256 151 440 216 640 597 1766 670 1980 40 118 193 571 340 1005 146 435 291 862 322 950 30 88 99 291 153 450 54 160 137 405 185 545 48 140 102 300 120 355 19 55 72 214 119 354 47 140 86 256 86 258 0 2 -400 3 -889 3 l-890 0 -41 -132z"/>
  </g>
</svg>
