<svg id="Holidu" xmlns="http://www.w3.org/2000/svg" viewBox="0 0 1000 309.3631"><g><g><path d="M173.6088,120.9731c7.3256,6.2166,19.5353,4.3516,27.1795-4.2479s7.8566-20.618.531-26.8346-19.5353-4.3515-27.18,4.248S166.2829,114.7567,173.6088,120.9731Z" style="fill:#00809d"/><path d="M263.911,63.39l-99.2484-57.3c-14.0659-8.12-29.557-8.1179-43.6208,0L21.7945,63.39C7.9412,71.3883-.0031,84.6819,0,99.8641L.0359,248.1616a40.8179,40.8179,0,0,0,25.2152,38.08c72.4975,30.8289,162.6219,30.8295,235.1909-.0052A40.8178,40.8178,0,0,0,285.67,248.1512l.0349-148.2871C285.7085,84.683,277.7652,71.3883,263.911,63.39Zm3.8818,184.7565a22.9092,22.9092,0,0,1-14.3421,21.6374c-68.2527,29-153.0131,29.0055-221.2041.0071a22.9066,22.9066,0,0,1-14.3339-21.6333L17.8767,99.86c-.002-8.8736,4.4435-16.1319,12.8562-20.9883l99.2473-57.3c8.6584-5,17.0827-5.0013,25.744,0l99.2484,57.3c8.4126,4.8564,12.8571,12.1147,12.855,20.9883Z" style="fill:#00809d"/><path d="M113.0782,148.8011V102.3363a4.2109,4.2109,0,0,0-4.211-4.2109H87.5482a4.211,4.211,0,0,0-4.2111,4.2109V148.79A207.2762,207.2762,0,0,0,113.0782,148.8011Z" style="fill:#00809d"/><path d="M218.4429,126.9224a3.3553,3.3553,0,0,0-4.781-1.0948,207.7978,207.7978,0,0,1-145.9234,32.65,4.2109,4.2109,0,0,0-4.2745,2.05l-3.2449,5.62a4.2253,4.2253,0,0,0,1.6272,5.8113,124.2606,124.2606,0,0,0,21.4908,9.3173v55.4608a4.2111,4.2111,0,0,0,4.2111,4.2111h21.3189a4.211,4.211,0,0,0,4.211-4.2111V187.0649a124.5608,124.5608,0,0,0,59.5237-10.3612v60.0326a4.2111,4.2111,0,0,0,4.211,4.2111h21.319a4.211,4.211,0,0,0,4.211-4.2111V158.1085a125.7013,125.7013,0,0,0,19.3847-20.4331,4.1919,4.1919,0,0,0,.259-4.6155Z" style="fill:#00809d"/></g><g><path d="M459.7345,113.1031v100.41a4.0409,4.0409,0,0,1-4.0409,4.0409H438.667a4.0409,4.0409,0,0,1-4.0409-4.0409v-40.44H382.242v40.44a4.041,4.041,0,0,1-4.041,4.0409H361.1745a4.0409,4.0409,0,0,1-4.0409-4.0409V113.1031a4.0409,4.0409,0,0,1,4.0409-4.0409H378.201a4.041,4.041,0,0,1,4.041,4.0409v38.7357h52.3841V113.1031a4.0409,4.0409,0,0,1,4.0409-4.0409h17.0266A4.0409,4.0409,0,0,1,459.7345,113.1031Z" style="fill:#00809d"/><path d="M478.9437,163.3078c0-32.2368,25.1084-56.1042,59.3612-56.1042,34.0954,0,59.3612,23.713,59.3612,56.1042,0,32.3943-25.2658,56.1073-59.3612,56.1073C504.0521,219.4151,478.9437,195.5447,478.9437,163.3078Zm93.3022,0c0-20.6134-14.5686-34.7159-33.941-34.7159-19.3754,0-33.944,14.1025-33.944,34.7159s14.5686,34.719,33.944,34.719C557.6773,198.0268,572.2459,183.9213,572.2459,163.3078Z" style="fill:#00809d"/><path d="M620.93,109.0622H637.956a4.041,4.041,0,0,1,4.041,4.0409v83.9914h55.5246a4.041,4.041,0,0,1,4.041,4.0409v12.3772a4.041,4.041,0,0,1-4.041,4.0409H620.93a4.041,4.041,0,0,1-4.041-4.0409V113.1031A4.041,4.041,0,0,1,620.93,109.0622Z" style="fill:#00809d"/><path d="M723.53,109.0622H740.557a4.0409,4.0409,0,0,1,4.0409,4.0409v100.41a4.0409,4.0409,0,0,1-4.0409,4.0409H723.53a4.0409,4.0409,0,0,1-4.0409-4.0409V113.1031A4.0409,4.0409,0,0,1,723.53,109.0622Z" style="fill:#00809d"/><path d="M769.7166,113.1031a4.0409,4.0409,0,0,1,4.0409-4.0409h45.8258c35.4939,0,58.6066,21.3883,58.6066,54.2456s-23.1127,54.2457-58.6066,54.2457H773.7575a4.0409,4.0409,0,0,1-4.0409-4.0409ZM818.54,196.94c21.5427,0,34.4273-12.8645,34.4273-33.6323s-12.8846-33.6322-34.4273-33.6322H794.825V196.94Z" style="fill:#00809d"/><path d="M897.3991,169.8188V113.1031a4.0409,4.0409,0,0,1,4.0409-4.0409h17.0265a4.041,4.041,0,0,1,4.041,4.0409v55.7834c0,20.6134,11.1588,29.14,26.3479,29.14,15.3435,0,26.348-8.5269,26.348-29.14V113.1031a4.0409,4.0409,0,0,1,4.0409-4.0409h16.7148A4.0409,4.0409,0,0,1,1000,113.1031v56.7157c0,31.9281-20.459,49.5963-51.3005,49.5963S897.3991,201.7469,897.3991,169.8188Z" style="fill:#00809d"/></g></g></svg>
