<!-- Vrbo V-mark. Source: vrbo.com public site header SVG, V-glyph paths
     extracted (rbo letters cropped from the original 0 0 275 100 viewBox).
     Same path data the app uses in PlatformIcon.vue. No third-party
     license — public element from the brand owner's own site. -->
<svg xmlns="http://www.w3.org/2000/svg" viewBox="0 12 125 78" preserveAspectRatio="xMidYMid meet" aria-label="Vrbo">
  <g fill="#0F51EC">
    <path d="M25.005 27.2274C23.1908 19.4454 23.5287 15.1055 24.3191 12.5211H19.9076C19.7673 16.4443 20.5577 21.3512 21.8979 27.2274L34.4264 85.6633L36.4381 81.4079L25.0092 27.2274H25.0064H25.005Z"/>
    <path d="M33.2845 12.5211H28.3876C26.9443 15.6811 26.562 19.4583 28.1256 27.2274L38.4849 77.0623L40.541 72.7654L31.2269 27.2289C29.9325 20.2186 30.176 15.2473 33.283 12.5225L33.2845 12.5211Z"/>
    <path d="M5.73878 12.5212H0C4.85534 14.5387 7.98102 19.0747 9.67345 27.1918C9.71927 27.2806 23.1441 89.9647 23.1441 89.9647H26.2068L12.6631 27.1173C11.3716 20.906 9.2396 14.1235 5.73878 12.5212Z"/>
    <path d="M15.9281 12.5211H10.7549C12.8754 14.6917 14.555 21.4944 15.7978 27.2274L29.2498 89.9645H32.3125L18.7975 27.2274C17.3327 20.4978 16.2789 15.1113 15.9295 12.5211H15.9281Z"/>
    <path d="M45.9831 12.5211H38.5676C36.4228 13.6179 32.4151 17.0471 34.381 27.2274L42.5567 68.4641L44.6128 64.12L37.4923 27.2274C36.0977 18.3887 38.0092 14.2851 45.9831 12.5211Z"/>
    <path d="M60.9564 18.7667C60.8361 16.0878 60.0558 14.0918 58.4765 12.5211H52.3525C55.3207 13.7238 57.2437 15.6253 58.1515 18.7438C59.3986 23.0307 58.7285 29.6186 56.2228 39.8547L56.4275 40.0523C59.4158 30.0338 61.164 23.383 60.9564 18.7667Z"/>
    <path d="M69.5739 12.5211H63.304C63.5316 14.5657 63.4486 16.6763 63.0878 18.9987C62.2573 24.3509 59.9549 30.827 56.6016 40.2213L56.802 40.4146C61.6989 28.7036 64.8532 21.1765 66.4082 18.0809C66.9952 16.9111 68.049 14.7834 69.5739 12.5211Z"/>
    <path d="M75.1855 12.5211C72.518 14.1548 70.2557 16.4042 67.9204 19.7733C64.7876 24.2907 61.5244 30.8213 56.9727 40.5792L57.1617 40.7611V40.7668C62.1144 31.3339 65.9531 25.0697 70.167 20.7026C73.9714 16.7636 78.589 14.0431 83.9827 12.5211H75.1855Z"/>
    <path d="M119.082 39.8464C118.862 35.5495 116.457 33.4848 113.31 33.4848C107.889 33.4848 102.932 38.0537 98.9486 46.1693L98.582 47.8303C102.404 40.1399 106.829 35.6368 111.471 35.6368C114.142 35.6368 116.192 37.481 116.368 41.0348C116.763 48.8426 109.431 57.1773 102.784 59.6329L102.925 59.7689C110.983 57.7672 119.591 48.8225 119.08 39.8464H119.082Z"/>
    <path d="M113.659 42.2634C113.526 39.3224 111.955 37.746 109.548 37.746C105.748 37.746 101.724 41.9527 98.1435 49.8177L97.7168 51.9397C100.927 44.3267 104.68 39.9381 107.758 39.9381C109.681 39.9381 110.821 41.2998 110.948 43.4919C111.209 48.887 106.408 56.6919 102.425 59.2836L102.559 59.4153C107.996 56.9425 114.007 48.7997 113.657 42.2634H113.659Z"/>
    <path d="M124.641 37.4351C124.379 31.8224 121.099 29.2365 117.077 29.2365C109.789 29.2365 103.46 35.0039 99.6928 42.7902L99.3076 44.5399C103.073 36.7579 109.017 31.4186 115.235 31.4186C118.778 31.4186 121.664 33.7439 121.928 38.6608C122.496 49.0545 112.93 57.8616 103.225 60.0624L103.361 60.1955C114.744 58.4974 125.25 48.9327 124.64 37.4366L124.641 37.4351Z"/>
    <path d="M108.066 44.7204C107.979 43.1411 107.322 42.0414 105.748 42.0414C103.384 42.0414 100.333 46.629 97.3175 53.5705L97.0469 54.7948C98.7765 51.2138 101.884 44.6474 103.955 44.245C104.852 44.0718 105.556 44.8335 105.678 45.989C105.987 48.9328 104.165 54.9809 102.027 58.8884L102.163 59.0287C105.077 56.3898 108.284 48.7138 108.066 44.7204Z"/>
    <path d="M87.6443 29.1937C71.9614 29.1937 64.1322 39.5989 61.5205 51.4344H61.6565C64.4543 40.4222 71.8526 30.3764 85.8903 30.3764C92.6686 30.3764 96.387 34.6318 96.6934 40.1601C97.0457 47.4023 94.6817 53.0165 92.2333 59.5085L80.707 90.0093H83.8571L95.2945 59.7705C97.9377 53.4633 100.307 46.0478 99.6244 40.0742C99.1777 33.9818 95.1642 29.1923 87.6428 29.1923L87.6443 29.1937Z"/>
    <path d="M93.8115 40.5052V40.511C93.5567 35.4695 90.2234 31.562 84.1481 31.562C71.6855 31.562 64.5922 40.8675 61.9189 51.4344H62.055C64.8313 41.6936 71.1571 32.7891 82.3096 32.7891C87.6446 32.7891 90.6186 36.1238 90.8405 40.6413C91.1469 46.6549 88.3491 53.2356 86.1198 59.2436L74.2413 90.0093H77.3913L89.0879 59.4985C89.0879 59.4985 94.1709 47.5713 93.8115 40.5038V40.5052Z"/>
    <path d="M88.164 40.74V40.7342H88.1669C87.9364 36.8325 85.3691 33.8944 80.7758 33.8944C70.9563 33.8944 65.0199 42.4224 62.3252 51.4415H62.4612C65.259 43.0624 70.8432 35.0799 78.9788 35.0799C82.8734 35.0799 85.0584 37.537 85.2345 40.959C85.4965 45.6955 82.2606 53.4188 80.1186 58.8168L67.8979 90.0093H71.1753L83.1784 58.9471C85.0655 54.4369 88.4862 46.1881 88.164 40.7385V40.74Z"/>
    <path d="M77.1938 58.3786C79.2327 53.2484 82.7021 45.3461 82.4859 41.1308C82.3126 38.323 80.5199 36.3485 77.3699 36.3485C70.5988 36.3485 65.3397 43.6508 62.781 51.4385H62.917C65.5516 44.55 70.1993 37.534 75.6646 37.534C78.0701 37.534 79.4676 38.8957 79.6021 41.2224C79.7754 45.0383 75.971 53.5977 74.1798 58.3801L61.6055 90.0121H64.7555L77.1995 58.3829L77.1938 58.3801V58.3786Z"/>
    <path d="M76.7982 41.4802C76.7252 39.6847 75.7043 38.6724 74.0004 38.6724C70.0657 38.6724 65.8247 44.8908 63.1915 51.4372H63.3275C65.9063 45.6454 69.9254 39.9009 72.202 39.9009C73.1628 39.9009 73.8214 40.382 73.8644 41.6105C73.9947 44.1978 69.7536 53.8512 68.0497 58.0207L55.2549 90.0093H58.4049L71.1539 58.0207C74.964 48.4719 76.8984 43.9659 76.7982 41.4788V41.4802Z"/>
  </g>
</svg>
